<svg viewBox="0 0 400 400" xmlns:xlink="http://www.w3.org/1999/xlink" xmlns="http://www.w3.org/2000/svg" id="图层_1"><defs><style>.cls-1{fill:url(#未命名的渐变_33);}.cls-2{fill:#c4c4c4;}.cls-2,.cls-24{opacity:0.6;}.cls-3,.cls-4{fill:#cecece;}.cls-4{opacity:0.5;}.cls-5{fill:#eaeaea;}.cls-6{fill:url(#未命名的渐变_13);}.cls-7{fill:url(#未命名的渐变_13-2);}.cls-8{fill:url(#未命名的渐变_13-3);}.cls-9{fill:url(#未命名的渐变_13-4);}.cls-10{fill:url(#未命名的渐变_13-5);}.cls-11{fill:url(#未命名的渐变_13-6);}.cls-12{fill:url(#未命名的渐变_13-7);}.cls-13{fill:url(#未命名的渐变_13-8);}.cls-14{fill:url(#未命名的渐变_13-9);}.cls-15{fill:url(#未命名的渐变_13-10);}.cls-16{fill:url(#未命名的渐变_13-11);}.cls-17{fill:url(#未命名的渐变_13-12);}.cls-18{fill:url(#未命名的渐变_13-13);}.cls-19{fill:url(#未命名的渐变_13-14);}.cls-20{fill:url(#未命名的渐变_13-15);}.cls-21{fill:url(#未命名的渐变_37);}.cls-22{fill:url(#未命名的渐变_37-2);}.cls-23{fill:url(#未命名的渐变_13-16);}.cls-24{fill:url(#未命名的渐变_13-17);}.cls-25{opacity:0.7;fill:url(#未命名的渐变_13-18);}.cls-26{fill:url(#未命名的渐变_13-19);}.cls-27{fill:url(#未命名的渐变_37-3);}.cls-28{fill:url(#未命名的渐变_37-4);}.cls-29{fill:#adadad;}.cls-30{fill:#c8c8c8;}.cls-31{fill:#e2e2e2;}</style><linearGradient gradientUnits="userSpaceOnUse" y2="394.02" x2="196.65" y1="146.62" x1="211.28" id="未命名的渐变_33"><stop stop-color="#f0eff2" offset="0"></stop><stop stop-opacity="0.95" stop-color="#edecef" offset="0.01"></stop><stop stop-opacity="0.75" stop-color="#e1e0e4" offset="0.08"></stop><stop stop-opacity="0.57" stop-color="#d7d6da" offset="0.16"></stop><stop stop-opacity="0.42" stop-color="#cecdd1" offset="0.23"></stop><stop stop-opacity="0.29" stop-color="#c6c5ca" offset="0.32"></stop><stop stop-opacity="0.18" stop-color="#c0bfc4" offset="0.4"></stop><stop stop-opacity="0.1" stop-color="#bbbac0" offset="0.5"></stop><stop stop-opacity="0.04" stop-color="#b8b7bc" offset="0.62"></stop><stop stop-opacity="0.01" stop-color="#b6b5bb" offset="0.75"></stop><stop stop-opacity="0" stop-color="#b5b4ba" offset="1"></stop></linearGradient><linearGradient gradientUnits="userSpaceOnUse" y2="228.43" x2="38.69" y1="196.83" x1="69.64" id="未命名的渐变_13"><stop stop-color="#f0eff2" offset="0"></stop><stop stop-color="#c6c5cc" offset="1"></stop></linearGradient><linearGradient xlink:href="#未命名的渐变_13" y2="216.64" x2="55.82" y1="215.01" x1="56.39" id="未命名的渐变_13-2"></linearGradient><linearGradient xlink:href="#未命名的渐变_13" y2="226.12" x2="54.12" y1="226.36" x1="55.43" id="未命名的渐变_13-3"></linearGradient><linearGradient xlink:href="#未命名的渐变_13" y2="204.31" x2="295" y1="184.78" x1="314.13" id="未命名的渐变_13-4"></linearGradient><linearGradient xlink:href="#未命名的渐变_13" y2="197.03" x2="305.59" y1="196.01" x1="305.95" id="未命名的渐变_13-5"></linearGradient><linearGradient xlink:href="#未命名的渐变_13" y2="202.88" x2="304.54" y1="203.03" x1="305.35" id="未命名的渐变_13-6"></linearGradient><linearGradient xlink:href="#未命名的渐变_13" y2="270.28" x2="361.31" y1="259" x1="372.36" id="未命名的渐变_13-7"></linearGradient><linearGradient xlink:href="#未命名的渐变_13" y2="266.07" x2="367.42" y1="265.48" x1="367.63" id="未命名的渐变_13-8"></linearGradient><linearGradient xlink:href="#未命名的渐变_13" y2="269.45" x2="366.82" y1="269.54" x1="367.29" id="未命名的渐变_13-9"></linearGradient><linearGradient xlink:href="#未命名的渐变_13" y2="220.91" x2="276.48" y1="209.63" x1="287.52" id="未命名的渐变_13-10"></linearGradient><linearGradient xlink:href="#未命名的渐变_13" y2="216.7" x2="282.59" y1="216.12" x1="282.8" id="未命名的渐变_13-11"></linearGradient><linearGradient xlink:href="#未命名的渐变_13" y2="220.08" x2="281.99" y1="220.17" x1="282.45" id="未命名的渐变_13-12"></linearGradient><linearGradient xlink:href="#未命名的渐变_13" y2="242.19" x2="77.06" y1="227.64" x1="91.3" id="未命名的渐变_13-13"></linearGradient><linearGradient xlink:href="#未命名的渐变_13" y2="236.76" x2="84.94" y1="236.01" x1="85.21" id="未命名的渐变_13-14"></linearGradient><linearGradient xlink:href="#未命名的渐变_13" y2="241.12" x2="84.16" y1="241.23" x1="84.77" id="未命名的渐变_13-15"></linearGradient><linearGradient gradientUnits="userSpaceOnUse" y2="142.69" x2="138.47" y1="115.72" x1="127.38" id="未命名的渐变_37"><stop stop-color="#f0eff2" offset="0"></stop><stop stop-opacity="0" stop-color="#c6c5cc" offset="1"></stop></linearGradient><linearGradient xlink:href="#未命名的渐变_37" y2="142.31" x2="119.99" y1="127.04" x1="113.71" id="未命名的渐变_37-2"></linearGradient><linearGradient xlink:href="#未命名的渐变_13" y2="165.11" x2="100.48" y1="151.72" x1="113.32" id="未命名的渐变_13-16"></linearGradient><linearGradient xlink:href="#未命名的渐变_13" y2="256.11" x2="127.48" y1="251.9" x1="131.52" id="未命名的渐变_13-17"></linearGradient><linearGradient xlink:href="#未命名的渐变_13" y2="99.27" x2="303.96" y1="89.39" x1="313.44" id="未命名的渐变_13-18"></linearGradient><linearGradient xlink:href="#未命名的渐变_13" y2="192.8" x2="330.52" y1="180.74" x1="342.08" id="未命名的渐变_13-19"></linearGradient><linearGradient xlink:href="#未命名的渐变_37" y2="147.31" x2="300.23" y1="138.31" x1="299.92" id="未命名的渐变_37-3"></linearGradient><linearGradient xlink:href="#未命名的渐变_37" y2="149.18" x2="308.76" y1="145.56" x1="308.64" id="未命名的渐变_37-4"></linearGradient></defs><title>空状态7</title><path d="M2.41,337.63C3.67,237.3,91.65,156.32,200,156.32c109.14,0,197.61,82.15,197.61,183.48" class="cls-1"></path><ellipse ry="17.97" rx="19.35" cy="267.99" cx="218.5" class="cls-2"></ellipse><ellipse ry="12.12" rx="14.77" cy="173" cx="223.26" class="cls-3"></ellipse><path d="M174.82,171c6.73,0,12.18-4.81,12.18-10.74a9.72,9.72,0,0,0-.68-3.53,212.75,212.75,0,0,0-23.65,2.84c0,.23,0,.46,0,.69C162.63,166.23,168.08,171,174.82,171Z" class="cls-3"></path><path d="M103.26,210.87c15.88,0,28.75-12,28.75-26.69a25.23,25.23,0,0,0-4.86-14.85A201.78,201.78,0,0,0,77.1,195.19C81.62,204.43,91.62,210.87,103.26,210.87Z" class="cls-4"></path><ellipse ry="13.31" rx="14.33" cy="267.99" cx="99.53" class="cls-5"></ellipse><ellipse ry="7.96" rx="8.58" cy="286.3" cx="291.23" class="cls-5"></ellipse><path d="M57.23,201.63c.63-2.57,1.3-7.64-3-8.56a6.34,6.34,0,0,0-7.2,4.41c-.89,2.73-2.1,14.59-2.34,17a4.92,4.92,0,0,1-.2,1,10.36,10.36,0,0,1-4.73,6c-3.84,2,3.74,13.48,14.63,10.37S66,222.69,65.3,214.42c-.64-7.24-5.93-2.82-7.89-8.29A7.75,7.75,0,0,1,57.23,201.63Z" class="cls-6"></path><path d="M51.73,224.57a8,8,0,0,0,1.75-1.43,11.93,11.93,0,0,0,1.44-1.87,12.55,12.55,0,0,0,1-2.15,14.92,14.92,0,0,0,.66-2.31,15.18,15.18,0,0,1-.43,2.39,12.67,12.67,0,0,1-.84,2.3A11.87,11.87,0,0,1,54,223.62a9.08,9.08,0,0,1-1.81,1.8Z" class="cls-7"></path><path d="M51.8,210.2a21.41,21.41,0,0,0-1.06,7.68,12,12,0,0,0,.82,3.72,24.51,24.51,0,0,1,1.29,3.79,22.38,22.38,0,0,1,.62,4,25.78,25.78,0,0,1-.09,4c-.06.67-.14,1.33-.25,2s-.18,1.26-.24,1.9-.1,1.26-.14,1.93l-.08,1,0,.49,0,.25v.12s0,.09-.11.12h-.78c-.15-.05-.08-.09-.1-.13v-.37l0-.49,0-1a16.94,16.94,0,0,1,0-2c0-.67.16-1.36.27-2s.2-1.27.27-1.91a24.36,24.36,0,0,0-.3-7.67,28.06,28.06,0,0,0-1.08-3.72,12.7,12.7,0,0,1-.67-4,20.22,20.22,0,0,1,1.54-7.78Z" class="cls-8"></path><path d="M306.46,187.74c.39-1.58.81-4.72-1.83-5.29a3.94,3.94,0,0,0-4.46,2.73c-.55,1.69-1.3,9-1.44,10.51a3.1,3.1,0,0,1-.13.62,6.34,6.34,0,0,1-2.92,3.71c-2.38,1.21,2.31,8.33,9,6.41s7.19-5.67,6.74-10.78c-.4-4.47-3.67-1.74-4.89-5.12A4.91,4.91,0,0,1,306.46,187.74Z" class="cls-9"></path><path d="M303.06,201.93a5.32,5.32,0,0,0,1.09-.89,7.67,7.67,0,0,0,.89-1.15,9,9,0,0,0,.64-1.33,9.78,9.78,0,0,0,.41-1.43,9.6,9.6,0,0,1-.27,1.48,8.06,8.06,0,0,1-.52,1.42,7.65,7.65,0,0,1-.8,1.31,5.67,5.67,0,0,1-1.13,1.11Z" class="cls-10"></path><path d="M303.11,193a13.3,13.3,0,0,0-.66,4.75,7.76,7.76,0,0,0,.51,2.3,17,17,0,0,1,.8,2.34,13.79,13.79,0,0,1,.38,2.47,15.91,15.91,0,0,1-.05,2.49c0,.41-.09.82-.16,1.23s-.11.79-.15,1.18-.06.78-.09,1.19l0,.61,0,.31v.22s0,.06-.06.08h-.48c-.1,0-.06,0-.07-.08v-.53l0-.61a10.48,10.48,0,0,1,0-1.25c0-.41.1-.84.17-1.24s.12-.78.16-1.18a15,15,0,0,0-.18-4.73,17.22,17.22,0,0,0-.67-2.3,8.06,8.06,0,0,1-.42-2.47,12.33,12.33,0,0,1,1-4.81Z" class="cls-11"></path><path d="M367.93,260.71c.22-.91.46-2.72-1.06-3a2.26,2.26,0,0,0-2.57,1.57,59.23,59.23,0,0,0-.84,6.07,1.53,1.53,0,0,1-.07.36,3.69,3.69,0,0,1-1.69,2.14c-1.37.7,1.34,4.81,5.22,3.7s4.15-3.28,3.89-6.23c-.23-2.58-2.12-1-2.82-2.95A2.85,2.85,0,0,1,367.93,260.71Z" class="cls-12"></path><path d="M366,268.9a3.35,3.35,0,0,0,.63-.51,4.09,4.09,0,0,0,.51-.67,3.64,3.64,0,0,0,.37-.77,4.55,4.55,0,0,0,.24-.82,5.05,5.05,0,0,1-.15.85,4.73,4.73,0,0,1-.3.82,4.58,4.58,0,0,1-.47.76,3,3,0,0,1-.65.64Z" class="cls-13"></path><path d="M366,263.77a7.77,7.77,0,0,0-.38,2.74,4.29,4.29,0,0,0,.3,1.33,9.74,9.74,0,0,1,.46,1.35,8.56,8.56,0,0,1,.22,1.42,9.86,9.86,0,0,1,0,1.44c0,.24-.05.48-.09.71s-.07.45-.09.68,0,.45-.05.69l0,.35v.31s0,0,0,0H366s0,0,0-.05v-.66a5.83,5.83,0,0,1,0-.72,5.51,5.51,0,0,1,.09-.71c0-.23.07-.46.1-.68a8.68,8.68,0,0,0-.11-2.74,10.42,10.42,0,0,0-.38-1.32,4.17,4.17,0,0,1-.24-1.43,7.14,7.14,0,0,1,.55-2.78Z" class="cls-14"></path><path d="M283.09,211.34c.23-.91.47-2.72-1.06-3.05a2.27,2.27,0,0,0-2.57,1.57,56.5,56.5,0,0,0-.83,6.07,2.29,2.29,0,0,1-.07.36,3.69,3.69,0,0,1-1.69,2.14c-1.37.7,1.33,4.81,5.22,3.7s4.15-3.27,3.89-6.22c-.23-2.59-2.12-1-2.82-3A2.76,2.76,0,0,1,283.09,211.34Z" class="cls-15"></path><path d="M281.13,219.53a2.72,2.72,0,0,0,.63-.51,4.23,4.23,0,0,0,.51-.67,4.44,4.44,0,0,0,.37-.76,4.91,4.91,0,0,0,.24-.83,5.08,5.08,0,0,1-.16.85,3.36,3.36,0,0,1-.3.82,4,4,0,0,1-.46.76,3.29,3.29,0,0,1-.65.64Z" class="cls-16"></path><path d="M281.16,214.4a7.77,7.77,0,0,0-.38,2.74,4.28,4.28,0,0,0,.29,1.33,8.94,8.94,0,0,1,.46,1.35,8.58,8.58,0,0,1,.23,1.42,9.86,9.86,0,0,1,0,1.44c0,.24-.05.48-.09.71s-.06.46-.08.68,0,.45-.05.69l0,.35,0,.18v.13s0,0,0,0h-.27c-.06,0,0,0,0-.05v-.66a5.79,5.79,0,0,1,0-.72c0-.23.06-.48.1-.71s.07-.45.1-.68a8.36,8.36,0,0,0-.5-4.06,4.71,4.71,0,0,1-.24-1.43,7.24,7.24,0,0,1,.55-2.77Z" class="cls-17"></path><path d="M85.59,229.85c.29-1.18.6-3.51-1.37-3.94a2.92,2.92,0,0,0-3.31,2,75.29,75.29,0,0,0-1.08,7.83,1.79,1.79,0,0,1-.09.46A4.76,4.76,0,0,1,77.57,239c-1.77.9,1.72,6.2,6.73,4.77s5.35-4.22,5-8c-.3-3.33-2.73-1.3-3.64-3.82A3.64,3.64,0,0,1,85.59,229.85Z" class="cls-18"></path><path d="M83.06,240.41a3.85,3.85,0,0,0,.81-.66,5,5,0,0,0,.66-.86,6.47,6.47,0,0,0,.48-1,7.56,7.56,0,0,0,.3-1.06,6.84,6.84,0,0,1-.19,1.1,6.16,6.16,0,0,1-.39,1.06,6,6,0,0,1-.6,1,4.41,4.41,0,0,1-.84.83Z" class="cls-19"></path><path d="M83.09,233.8a9.89,9.89,0,0,0-.48,3.53A5.52,5.52,0,0,0,83,239a12.85,12.85,0,0,1,.59,1.75,10.26,10.26,0,0,1,.29,1.83,11.53,11.53,0,0,1-.05,1.86c0,.3-.06.61-.11.91s-.09.59-.12.88,0,.58-.06.89l0,.45v.4s0,0,0,.05h-.35c-.07,0,0,0,0-.05v-.86a7.14,7.14,0,0,1,0-.92,8.88,8.88,0,0,1,.12-.92,8.89,8.89,0,0,0,.13-.88,11.3,11.3,0,0,0-.14-3.53,11.88,11.88,0,0,0-.5-1.71,5.78,5.78,0,0,1-.31-1.84,9.29,9.29,0,0,1,.71-3.58Z" class="cls-20"></path><path d="M142.69,129.43a6.66,6.66,0,0,0-1.62.2c0-.07,0-.13,0-.2a6.61,6.61,0,0,0-13.22,0v.06a6.61,6.61,0,1,0,4.24,12.25,6.62,6.62,0,0,0,6.49-.53,6.54,6.54,0,0,0,4.1,1.43,6.61,6.61,0,1,0,0-13.21Z" class="cls-21"></path><path d="M122.38,134.8a3.93,3.93,0,0,0-.92.12v-.12a3.74,3.74,0,1,0-7.48,0v0a3.74,3.74,0,1,0,2.39,6.93,3.73,3.73,0,0,0,3.68-.3,3.67,3.67,0,0,0,2.32.81,3.74,3.74,0,1,0,0-7.48Z" class="cls-22"></path><polygon points="102.71 159.62 106.93 157.4 106.12 162.11 109.54 165.44 104.82 166.12 102.71 170.4 100.59 166.12 95.87 165.44 99.29 162.11 98.48 157.4 102.71 159.62" class="cls-23"></polygon><polygon points="128.19 254.38 129.51 253.68 129.26 255.16 130.34 256.21 128.85 256.43 128.19 257.77 127.52 256.43 126.04 256.21 127.11 255.16 126.86 253.68 128.19 254.38" class="cls-24"></polygon><polygon points="305.61 95.22 308.73 93.58 308.13 97.05 310.65 99.51 307.17 100.02 305.61 103.17 304.05 100.02 300.57 99.51 303.09 97.05 302.49 93.58 305.61 95.22" class="cls-25"></polygon><polygon points="332.53 187.86 336.33 185.86 335.61 190.1 338.69 193.1 334.43 193.71 332.53 197.57 330.63 193.71 326.38 193.1 329.45 190.1 328.73 185.86 332.53 187.86" class="cls-26"></polygon><path d="M303.67,142.45a3.1,3.1,0,0,0-.81.11v-.11a3.32,3.32,0,0,0-6.64,0v0a3.32,3.32,0,0,0,.46,6.61,3.27,3.27,0,0,0,1.67-.46,3.22,3.22,0,0,0,1.39.31,3.31,3.31,0,0,0,1.87-.57,3.32,3.32,0,1,0,2.06-5.93Z" class="cls-27"></path><path d="M310.15,147.23a1.24,1.24,0,0,0-.33,0v0a1.34,1.34,0,1,0-2.67,0h0a1.34,1.34,0,0,0,.18,2.67,1.25,1.25,0,0,0,.67-.19,1.33,1.33,0,0,0,.57.13,1.41,1.41,0,0,0,.75-.23,1.34,1.34,0,1,0,.83-2.39Z" class="cls-28"></path><path d="M206.92,174.2A27.23,27.23,0,1,1,234.14,147,27.23,27.23,0,0,1,206.92,174.2Zm58.76-33.85,19.58-26.76L275,95.81,242,99.4l-11.47-6.63L217.18,62.43H196.65L183.27,92.77,171.8,99.4l-33-3.59c-4.87,8.45-5.39,9.34-10.26,17.78l19.59,26.76V153.6l-19.59,26.76,10.26,17.77,33-3.58,11.47,6.62,13.38,30.35h20.53l13.38-30.35L242,194.55l33,3.58c4.88-8.44,5.39-9.33,10.26-17.77L265.68,153.6Z" class="cls-29"></path><path d="M210.3,173.12a27.23,27.23,0,1,1,27.22-27.22A27.22,27.22,0,0,1,210.3,173.12Zm58.76-33.85,19.59-26.76L278.38,94.74l-33,3.58L233.94,91.7,220.56,61.35H200L186.66,91.7l-11.48,6.62-33-3.58L132,112.51l19.59,26.76v13.25L132,179.28l10.27,17.78,33-3.59,11.48,6.63L200,230.44h20.53l13.38-30.34,11.48-6.63,33,3.59,10.27-17.78-19.59-26.76Z" class="cls-30"></path><path d="M213.68,172a27.22,27.22,0,1,1,27.22-27.22A27.22,27.22,0,0,1,213.68,172Zm58.76-33.85L292,111.44c-4.88-8.45-5.39-9.33-10.26-17.78l-33,3.59-11.48-6.63L224,60.28H203.42L190,90.62l-11.48,6.63-33-3.59-10.27,17.78,19.59,26.75v13.26L135.33,178.2,145.6,196l33-3.58L190,199l13.38,30.34H224L237.32,199l11.48-6.62,33,3.58L292,178.2l-19.59-26.75Z" class="cls-31"></path></svg>